<?xml version="1.0" encoding="UTF-8"?>
<svg width="178px" height="145px" viewBox="0 0 178 145" version="1.1" xmlns="http://www.w3.org/2000/svg" xmlns:xlink="http://www.w3.org/1999/xlink">
    <!-- Generator: Sketch 42 (36781) - http://www.bohemiancoding.com/sketch -->
    <title>a</title>
    <desc>Created with Sketch.</desc>
    <defs></defs>
    <g id="Page-1" stroke="none" stroke-width="1" fill="none" fill-rule="evenodd">
        <g id="192---xxxhpdi" transform="translate(-7.000000, -24.000000)" fill="#000000">
            <path d="M161.76,106.52 L164.16,105.72 C165.6,105.08 167.36,104.28 169.6,102.84 C171.84,101.4 174.24,99.48 176.8,96.92 C179.36,94.2 181.92,90.84 184.48,86.52 L184.8,89.24 L184.8,94.84 C184.16,99.64 182.72,103.96 180.64,107.64 C178.56,111.48 176.16,114.68 173.44,117.56 C170.88,120.44 168,122.84 165.12,124.76 C162.24,126.68 159.52,128.28 157.12,129.56 C154.56,130.68 152.64,131.64 151.04,132.12 L148.48,133.08 L146.88,134.2 L146.56,136.28 L148.32,137.72 L152.48,139.16 C154.24,139.48 156,139.64 158.08,139.48 C160.16,139.48 162.24,139 164.48,138.2 C163.36,139.32 161.76,140.76 159.84,142.52 C157.92,144.28 155.68,146.2 153.12,148.12 C150.56,150.2 147.52,152.12 144.16,154.2 C140.96,156.28 137.28,158.2 133.28,159.96 C129.28,161.72 125.28,163.16 120.96,164.44 C116.8,165.72 112.8,166.68 109.28,167.48 C105.76,168.12 102.72,168.6 100.32,168.6 C97.92,168.76 96.64,168.44 96.32,167.96 L96.32,167.64 L95.68,167.64 L95.52,167.96 C95.2,168.44 93.92,168.76 91.52,168.6 C89.12,168.6 86.08,168.12 82.56,167.48 C79.04,166.68 75.04,165.72 70.88,164.44 C66.56,163.16 62.56,161.72 58.56,159.96 C54.72,158.2 51.04,156.28 47.84,154.2 C44.48,152.12 41.44,150.2 38.72,148.12 C36.16,146.2 33.92,144.28 32,142.52 C30.08,140.76 28.48,139.32 27.36,138.2 C29.6,139 31.68,139.48 33.76,139.48 C35.84,139.64 37.76,139.48 39.52,139.16 L43.68,137.72 L45.44,136.28 L44.96,134.2 L43.52,133.08 L40.96,132.12 C39.36,131.64 37.44,130.68 34.88,129.56 C32.48,128.28 29.76,126.68 26.88,124.76 C24,122.84 21.12,120.44 18.56,117.56 C15.84,114.68 13.44,111.48 11.36,107.8 C9.28,103.96 7.84,99.64 7.2,94.84 L7.2,89.24 L7.52,86.52 C10.08,90.84 12.64,94.2 15.2,96.92 C17.76,99.48 20.16,101.4 22.4,102.84 C24.48,104.28 26.24,105.08 27.68,105.72 L30.24,106.52 L32.8,105.24 L32.96,102.2 C32,100.44 31.04,98.68 29.92,96.92 C28.8,95.16 27.52,93.4 26.24,91.48 C23.04,87.32 21.12,82.04 20.48,75.8 C19.68,69.56 20.32,63.16 22.4,56.76 C23.84,52.12 25.92,48.28 28.64,44.92 C31.36,41.56 34.56,38.68 38.08,36.12 C41.6,33.72 45.44,31.48 49.44,29.72 C53.44,27.96 57.6,26.36 61.6,24.92 L62.88,24.92 C58.4,27.64 55.04,30.52 52.64,33.72 C50.24,36.92 48.64,39.96 47.84,43.16 C47.04,46.36 46.88,49.56 47.36,52.76 C47.84,55.8 48.48,58.84 49.76,61.72 C52.32,68.44 56.96,75.32 63.52,82.04 C58.88,89.72 56.16,96.92 55.52,103.64 C54.88,110.52 55.52,116.6 57.6,122.36 C59.52,127.96 62.24,133.08 65.92,137.72 C69.6,142.2 73.44,146.2 77.28,149.4 C81.28,152.76 84.8,155.32 88.16,157.4 C91.52,159.32 93.76,160.6 95.04,161.24 L96.8,161.24 C98.08,160.6 100.32,159.32 103.68,157.4 C107.2,155.32 110.72,152.76 114.72,149.4 C118.56,146.2 122.4,142.2 126.08,137.72 C129.76,133.08 132.48,127.96 134.4,122.36 C136.32,116.6 136.96,110.52 136.32,103.8 C135.68,97.08 132.96,89.88 128.32,82.04 C134.88,75.32 139.52,68.44 142.08,61.72 C143.36,58.84 144,55.8 144.48,52.76 C144.96,49.56 144.8,46.36 144,43.16 C143.2,39.96 141.6,36.92 139.2,33.72 C136.8,30.52 133.44,27.64 128.96,24.92 L130.4,24.92 C134.4,26.36 138.4,27.96 142.4,29.72 C146.4,31.48 150.24,33.72 153.76,36.12 C157.28,38.68 160.48,41.56 163.2,44.92 C165.92,48.28 168,52.12 169.44,56.76 C171.52,63 172.16,69.4 171.36,75.64 C170.72,81.88 168.8,87.32 165.76,91.48 C164.48,93.4 163.2,95.16 162.08,96.92 C160.8,98.68 159.84,100.44 158.88,102.2 L159.2,105.24 L161.76,106.52 Z M102.72,71 C100.64,71.96 98.4,72.28 96,72.28 C93.6,72.28 91.36,71.96 89.28,71 C87.2,70.04 85.28,68.76 83.68,67.16 C82.08,65.56 80.8,63.64 80,61.4 C79.04,59.32 78.56,56.92 78.56,54.52 C78.56,52.12 79.04,49.72 80,47.64 C80.8,45.4 82.08,43.64 83.68,41.88 C85.28,40.28 87.2,39 89.28,38.04 C91.36,37.24 93.6,36.76 96,36.76 C98.4,36.76 100.64,37.24 102.72,38.04 C104.8,39 106.72,40.28 108.32,41.88 C109.92,43.64 111.2,45.4 112,47.64 C112.96,49.72 113.44,52.12 113.44,54.52 C113.44,56.92 112.96,59.32 112,61.4 C111.2,63.64 109.92,65.56 108.32,67.16 C106.72,68.76 104.8,70.04 102.72,71 Z" id="a"></path>
        </g>
    </g>
</svg>