<?xml version="1.0" encoding="UTF-8"?>
<svg width="151px" height="158px" viewBox="0 0 151 158" version="1.1" xmlns="http://www.w3.org/2000/svg" xmlns:xlink="http://www.w3.org/1999/xlink">
    <!-- Generator: Sketch 42 (36781) - http://www.bohemiancoding.com/sketch -->
    <title>192 - xxxhpdi</title>
    <desc>Created with Sketch.</desc>
    <defs></defs>
    <g id="Page-1" stroke="none" stroke-width="1" fill="none" fill-rule="evenodd">
        <g id="192---xxxhpdi" fill="#D0011B">
            <path d="M80.04,3.8 L97,50.68 L140.52,38.84 L114.12,75.8 L150.6,97.88 L109.32,104.44 L117.16,153.88 L80.04,117.08 L41.32,156.92 L49.8,104.92 L7.88,98.04 L48.84,76.44 L3.4,26.68 L67.08,57.08 L80.04,3.8 Z M80.04,100.92 L99.72,120.44 L95.56,95 L117.96,91.48 L97.48,79.16 L112.2,58.52 L89.32,64.76 L81.8,43.96 L74.76,72.28 L48.2,59.64 L66.28,79.48 L42.28,92.28 L63.72,95.64 L59.4,121.88 L80.04,100.92 Z" id="s" transform="translate(77.000000, 80.360000) scale(-1, -1) translate(-77.000000, -80.360000) "></path>
        </g>
    </g>
</svg>