<?xml version="1.0" encoding="UTF-8"?>
<svg width="162px" height="145px" viewBox="0 0 162 145" version="1.1" xmlns="http://www.w3.org/2000/svg" xmlns:xlink="http://www.w3.org/1999/xlink">
    <!-- Generator: Sketch 42 (36781) - http://www.bohemiancoding.com/sketch -->
    <title>192 - xxxhpdi</title>
    <desc>Created with Sketch.</desc>
    <defs></defs>
    <g id="Page-1" stroke="none" stroke-width="1" fill="none" fill-rule="evenodd">
        <g id="192---xxxhpdi" fill="#000000">
            <path d="M121.56,17.32 C108.6,20.2 95.16,21.64 81.08,21.64 C67,21.64 53.56,20.2 40.6,17.32 C27.48,14.44 15,10.28 3,5 C13.72,12.68 23.48,21.48 32.44,31.4 C41.24,41.16 49.08,51.88 55.96,63.24 C62.68,74.76 68.12,86.92 72.44,99.88 C76.76,112.84 79.64,126.12 81.08,139.88 C82.52,126.12 85.4,112.84 89.72,99.88 C94.04,86.92 99.48,74.76 106.2,63.4 C113.08,51.88 120.92,41.32 129.72,31.56 C138.68,21.64 148.44,12.84 159.16,5 C147,10.44 134.52,14.44 121.56,17.32 Z" id="f"></path>
        </g>
    </g>
</svg>