<?xml version="1.0" encoding="UTF-8"?>
<svg width="167px" height="156px" viewBox="0 0 167 156" version="1.1" xmlns="http://www.w3.org/2000/svg" xmlns:xlink="http://www.w3.org/1999/xlink">
    <!-- Generator: Sketch 42 (36781) - http://www.bohemiancoding.com/sketch -->
    <title>192 - xxxhpdi</title>
    <desc>Created with Sketch.</desc>
    <defs></defs>
    <g id="Page-1" stroke="none" stroke-width="1" fill="none" fill-rule="evenodd">
        <g id="192---xxxhpdi" fill="#000000">
            <path d="M153.76,48.44 C157.6,57.72 159.68,67.64 159.68,78.04 C159.68,88.28 157.6,98.2 153.76,107.48 C149.92,116.6 144.48,124.6 137.6,131.48 C130.72,138.36 122.72,143.8 113.44,147.64 C104.32,151.64 94.4,153.72 84,153.72 C73.6,153.72 63.68,151.64 54.56,147.64 C45.28,143.8 37.28,138.36 30.4,131.48 C23.52,124.6 18.08,116.6 14.24,107.48 C10.4,98.2 8.32,88.28 8.32,78.04 C8.32,67.64 10.4,57.72 14.24,48.44 C18.24,39.32 23.68,31.32 30.4,24.44 C37.28,17.56 45.28,12.12 54.56,8.28 C63.68,4.28 73.6,2.36 84,2.36 C94.4,2.36 104.32,4.28 113.44,8.28 C122.72,12.12 130.72,17.56 137.6,24.44 C144.32,31.32 149.76,39.32 153.76,48.44 Z M84,145.437951 C84.2207211,145.439983 84.4417219,145.441 84.663,145.441 C93.954,145.441 102.593,143.648 110.743,140.225 C119.056,136.639 126.065,131.912 132.259,125.718 C138.29,119.687 143.18,112.515 146.603,104.365 C150.189,96.215 151.819,87.413 151.819,78.122 C151.819,68.831 150.189,60.192 146.603,51.879 C143.18,43.729 138.29,36.557 132.259,30.526 C126.065,24.332 119.056,19.605 110.743,16.019 C102.593,12.596 93.954,10.803 84.663,10.803 C84.4417219,10.803 84.2207211,10.804017 84,10.8060489 L84,145.437953 Z" id="Combined-Shape" transform="translate(84.000000, 78.040000) scale(-1, 1) translate(-84.000000, -78.040000) "></path>
        </g>
    </g>
</svg>