<?xml version="1.0" encoding="UTF-8"?>
<svg width="138px" height="142px" viewBox="0 0 138 142" version="1.1" xmlns="http://www.w3.org/2000/svg" xmlns:xlink="http://www.w3.org/1999/xlink">
    <!-- Generator: Sketch 42 (36781) - http://www.bohemiancoding.com/sketch -->
    <title>192 - xxxhpdi</title>
    <desc>Created with Sketch.</desc>
    <defs></defs>
    <g id="Page-1" stroke="none" stroke-width="1" fill="none" fill-rule="evenodd">
        <g id="192---xxxhpdi">
            <path d="M26.004525,15.409471 C20.4791784,15.409471 16,19.8806291 16,25.4021781 L16,115.555303 C16,121.074123 20.4827281,125.54801 26.004525,125.54801 L115.995475,125.54801 C121.520822,125.54801 126,121.076852 126,115.555303 L126,25.4021781 C126,19.8833584 121.517272,15.409471 115.995475,15.409471 L26.004525,15.409471 Z" id="b" fill="#000000"></path>
            <path d="M93.1633236,97.7728041 L73.6786773,117.35109 L71,120.04264 L76.7400228,125.066868 L79.4187001,122.375317 L98.5334338,103.168722 L117.648168,122.375317 L120.326845,125.066868 L126.066868,120.04264 L123.38819,117.35109 L103.903544,97.7728041 L123.38819,78.1945185 L126.066868,75.5029681 L120.326845,70.4787406 L117.648168,73.170291 L98.5334338,92.3768862 L79.4187001,73.170291 L76.7400228,70.4787406 L71,75.5029681 L73.6786773,78.1945185 L93.1633236,97.7728041 Z" id="Combined-Shape" stroke="#D60909" stroke-width="8" stroke-linecap="square"></path>
        </g>
    </g>
</svg>