<?xml version="1.0" encoding="UTF-8"?>
<svg width="151px" height="145px" viewBox="0 0 151 145" version="1.1" xmlns="http://www.w3.org/2000/svg" xmlns:xlink="http://www.w3.org/1999/xlink">
    <!-- Generator: Sketch 42 (36781) - http://www.bohemiancoding.com/sketch -->
    <title>192 - xxxhpdi</title>
    <desc>Created with Sketch.</desc>
    <defs></defs>
    <g id="Page-1" stroke="none" stroke-width="1" fill="none" fill-rule="evenodd">
        <g id="192---xxxhpdi" fill="#000000">
            <path d="M94.88,25.24 L106.08,5.4 L45.76,5.4 L57.12,25.24 L94.88,25.24 Z M43.36,33.4 L24.16,65.72 L1.6,65.72 L31.68,13.56 L43.36,33.4 Z M150.4,65.72 L127.52,65.72 L108.64,33.4 L120.32,13.56 L150.4,65.72 Z M57.12,41.56 L94.88,41.56 L113.28,74.04 L94.88,106.52 L57.12,106.52 L38.56,74.04 L57.12,41.56 Z M87.2,93.4 L98.24,74.04 L87.2,54.52 L64.64,54.52 L53.6,74.04 L64.64,93.4 L87.2,93.4 Z M1.6,82.2 L24.16,82.2 L43.04,114.52 L31.68,134.36 L1.6,82.2 Z M108.64,114.52 L127.52,82.2 L150.4,82.2 L120.32,134.36 L108.64,114.52 Z M57.12,122.68 L45.76,142.68 L106.08,142.68 L94.88,122.68 L57.12,122.68 Z" id="t"></path>
        </g>
    </g>
</svg>